<svg width="26" height="26" viewBox="0 0 26 26" fill="none" xmlns="http://www.w3.org/2000/svg">
<path d="M11.1083 18.8583L20.2146 9.75208L18.4063 7.94375L11.1083 15.2417L7.42708 11.5604L5.61875 13.3688L11.1083 18.8583ZM12.9167 25.8333C11.1299 25.8333 9.4507 25.4943 7.87917 24.8161C6.30764 24.138 4.94063 23.2177 3.77813 22.0552C2.61563 20.8927 1.69531 19.5257 1.01719 17.9542C0.339063 16.3826 0 14.7035 0 12.9167C0 11.1299 0.339063 9.4507 1.01719 7.87917C1.69531 6.30764 2.61563 4.94063 3.77813 3.77813C4.94063 2.61563 6.30764 1.69531 7.87917 1.01719C9.4507 0.339063 11.1299 0 12.9167 0C14.7035 0 16.3826 0.339063 17.9542 1.01719C19.5257 1.69531 20.8927 2.61563 22.0552 3.77813C23.2177 4.94063 24.138 6.30764 24.8161 7.87917C25.4943 9.4507 25.8333 11.1299 25.8333 12.9167C25.8333 14.7035 25.4943 16.3826 24.8161 17.9542C24.138 19.5257 23.2177 20.8927 22.0552 22.0552C20.8927 23.2177 19.5257 24.138 17.9542 24.8161C16.3826 25.4943 14.7035 25.8333 12.9167 25.8333Z" fill="#abaeb4"/>
</svg>
