<svg viewBox="0 0 16 20" fill="none" xmlns="http://www.w3.org/2000/svg">
<path d="M0.998514 19.0193C0.729074 19.0193 0.495295 18.9203 0.297177 18.7221C0.0990589 18.524 0 18.2902 0 18.0208V15.5245C0 14.0981 0.443784 12.838 1.33135 11.7444C2.21892 10.6508 3.36008 9.95344 4.75483 9.6523C4.12085 10.0961 3.62952 10.6548 3.28083 11.3284C2.93214 12.002 2.7578 12.7271 2.7578 13.5037V18.0208C2.7578 18.1951 2.78157 18.3695 2.82912 18.5438C2.87667 18.7182 2.95592 18.8767 3.06686 19.0193H0.998514ZM4.49331 19.0193C4.22387 19.0193 3.99009 18.9203 3.79198 18.7221C3.59386 18.524 3.4948 18.2902 3.4948 18.0208V13.5037C3.4948 12.3943 3.88707 11.4512 4.67162 10.6746C5.45617 9.89797 6.40317 9.50966 7.51263 9.50966H12.0059C13.1154 9.50966 14.0584 9.89797 14.8351 10.6746C15.6117 11.4512 16 12.3943 16 13.5037V15.0253C16 16.1347 15.6117 17.0778 14.8351 17.8544C14.0584 18.631 13.1154 19.0193 12.0059 19.0193H4.49331ZM8.01189 7.51263C6.96582 7.51263 6.07826 7.14809 5.34918 6.41902C4.62011 5.68995 4.25557 4.80238 4.25557 3.75631C4.25557 2.71025 4.62011 1.82268 5.34918 1.09361C6.07826 0.364537 6.96582 0 8.01189 0C9.05795 0 9.94552 0.364537 10.6746 1.09361C11.4037 1.82268 11.7682 2.71025 11.7682 3.75631C11.7682 4.80238 11.4037 5.68995 10.6746 6.41902C9.94552 7.14809 9.05795 7.51263 8.01189 7.51263Z" fill="#1F2636"/>
</svg>
