<svg viewBox="0 0 32 33" fill="none" xmlns="http://www.w3.org/2000/svg">
<path d="M14.88 29.7L22.88 13.6125H17.28V3.3L9.28 19.3875H14.88V29.7ZM16 33C13.7867 33 11.7067 32.5669 9.76 31.7006C7.81333 30.8344 6.12 29.6588 4.68 28.1737C3.24 26.6887 2.1 24.9425 1.26 22.935C0.42 20.9275 0 18.7825 0 16.5C0 14.2175 0.42 12.0725 1.26 10.065C2.1 8.0575 3.24 6.31125 4.68 4.82625C6.12 3.34125 7.81333 2.16563 9.76 1.29938C11.7067 0.433125 13.7867 0 16 0C18.2133 0 20.2933 0.433125 22.24 1.29938C24.1867 2.16563 25.88 3.34125 27.32 4.82625C28.76 6.31125 29.9 8.0575 30.74 10.065C31.58 12.0725 32 14.2175 32 16.5C32 18.7825 31.58 20.9275 30.74 22.935C29.9 24.9425 28.76 26.6887 27.32 28.1737C25.88 29.6588 24.1867 30.8344 22.24 31.7006C20.2933 32.5669 18.2133 33 16 33Z" fill="#1F2636"/>
</svg>
