<svg  viewBox="0 0 19 15" fill="none" xmlns="http://www.w3.org/2000/svg">
<path d="M9.5 15L8.1225 13.9373C6.52333 12.6975 5.20125 11.6281 4.15625 10.7289C3.11125 9.8297 2.28 9.02248 1.6625 8.30722C1.045 7.59196 0.613542 6.9346 0.368125 6.33515C0.122708 5.73569 0 5.12262 0 4.49591C0 3.21526 0.49875 2.14578 1.49625 1.28747C2.49375 0.429155 3.73667 0 5.225 0C6.04833 0 6.83208 0.149864 7.57625 0.449591C8.32042 0.749319 8.96167 1.17166 9.5 1.71662C10.0383 1.17166 10.6796 0.749319 11.4237 0.449591C12.1679 0.149864 12.9517 0 13.775 0C15.2633 0 16.5063 0.429155 17.5038 1.28747C18.5013 2.14578 19 3.21526 19 4.49591C19 5.12262 18.8773 5.73569 18.6319 6.33515C18.3865 6.9346 17.955 7.59196 17.3375 8.30722C16.72 9.02248 15.8888 9.8297 14.8438 10.7289C13.7987 11.6281 12.4767 12.6975 10.8775 13.9373L9.5 15Z" fill="#E6ECF5"/>
</svg>
