<svg width="13" height="13" viewBox="0 0 13 13" fill="none" xmlns="http://www.w3.org/2000/svg">
<path d="M7.04437 10.1644C7.20146 10.0073 7.28 9.815 7.28 9.5875C7.28 9.36 7.20146 9.16771 7.04437 9.01062C6.88729 8.85354 6.695 8.775 6.4675 8.775C6.24 8.775 6.04771 8.85354 5.89062 9.01062C5.73354 9.16771 5.655 9.36 5.655 9.5875C5.655 9.815 5.73354 10.0073 5.89062 10.1644C6.04771 10.3215 6.24 10.4 6.4675 10.4C6.695 10.4 6.88729 10.3215 7.04437 10.1644ZM5.8825 7.8975H7.085C7.085 7.54 7.12563 7.25833 7.20688 7.0525C7.28813 6.84667 7.51833 6.565 7.8975 6.2075C8.17917 5.92583 8.40125 5.65771 8.56375 5.40312C8.72625 5.14854 8.8075 4.8425 8.8075 4.485C8.8075 3.87833 8.58542 3.4125 8.14125 3.0875C7.69708 2.7625 7.17167 2.6 6.565 2.6C5.9475 2.6 5.44646 2.7625 5.06187 3.0875C4.67729 3.4125 4.40917 3.8025 4.2575 4.2575L5.33 4.68C5.38417 4.485 5.50604 4.27375 5.69562 4.04625C5.88521 3.81875 6.175 3.705 6.565 3.705C6.91167 3.705 7.17167 3.79979 7.345 3.98938C7.51833 4.17896 7.605 4.3875 7.605 4.615C7.605 4.83167 7.54 5.03479 7.41 5.22438C7.28 5.41396 7.1175 5.59 6.9225 5.7525C6.44583 6.175 6.15333 6.49458 6.045 6.71125C5.93667 6.92792 5.8825 7.32333 5.8825 7.8975ZM6.5 13C5.60083 13 4.75583 12.8294 3.965 12.4881C3.17417 12.1469 2.48625 11.6838 1.90125 11.0988C1.31625 10.5138 0.853125 9.82583 0.511875 9.035C0.170625 8.24417 0 7.39917 0 6.5C0 5.60083 0.170625 4.75583 0.511875 3.965C0.853125 3.17417 1.31625 2.48625 1.90125 1.90125C2.48625 1.31625 3.17417 0.853125 3.965 0.511875C4.75583 0.170625 5.60083 0 6.5 0C7.39917 0 8.24417 0.170625 9.035 0.511875C9.82583 0.853125 10.5138 1.31625 11.0988 1.90125C11.6838 2.48625 12.1469 3.17417 12.4881 3.965C12.8294 4.75583 13 5.60083 13 6.5C13 7.39917 12.8294 8.24417 12.4881 9.035C12.1469 9.82583 11.6838 10.5138 11.0988 11.0988C10.5138 11.6838 9.82583 12.1469 9.035 12.4881C8.24417 12.8294 7.39917 13 6.5 13Z" fill="#E6EAF2"/>
</svg>
