<svg viewBox="0 0 8 12" fill="none" xmlns="http://www.w3.org/2000/svg">
<path d="M5.874 0.350958C6.11177 0.125607 6.4269 0 6.7545 0C7.0821 0 7.39723 0.125607 7.635 0.350958C7.75047 0.459863 7.84246 0.591215 7.90533 0.736951C7.96821 0.882688 8.00064 1.03974 8.00064 1.19846C8.00064 1.35718 7.96821 1.51423 7.90533 1.65996C7.84246 1.8057 7.75047 1.93705 7.635 2.04596L3.522 6.00096L7.635 9.95596C7.75031 10.0649 7.84217 10.1961 7.90495 10.3418C7.96773 10.4874 8.00012 10.6444 8.00012 10.803C8.00012 10.9616 7.96773 11.1185 7.90495 11.2641C7.84217 11.4098 7.75031 11.5411 7.635 11.65C7.39728 11.875 7.08236 12.0004 6.755 12.0004C6.42764 12.0004 6.11272 11.875 5.875 11.65L0 6.00096L5.874 0.350958Z" fill="currentColor"/>
</svg>
