<svg width="17" height="17" viewBox="0 0 17 17" fill="none" xmlns="http://www.w3.org/2000/svg">
<path d="M15.7193 17L9.72685 11.0071C9.25129 11.3937 8.70339 11.6938 8.08316 11.9072C7.46292 12.1207 6.80773 12.2274 6.11758 12.2274C4.40784 12.2274 2.96076 11.6358 1.77636 10.4525C0.59212 9.26909 0 7.82322 0 6.11492C0 4.40647 0.591637 2.9602 1.77491 1.77612C2.95835 0.59204 4.40421 0 6.11251 0C7.82097 0 9.26723 0.592121 10.4513 1.77636C11.6354 2.96076 12.2274 4.40784 12.2274 6.11758C12.2274 6.80773 12.1187 7.46494 11.9012 8.0892C11.6837 8.71346 11.3857 9.26321 11.0071 9.73845L17 15.7193L15.7193 17ZM6.11372 10.4151C7.31391 10.4151 8.33085 9.99822 9.16453 9.16453C9.99822 8.33085 10.4151 7.31391 10.4151 6.11372C10.4151 4.91353 9.99822 3.89659 9.16453 3.0629C8.33085 2.22921 7.31391 1.81237 6.11372 1.81237C4.91353 1.81237 3.89659 2.22921 3.0629 3.0629C2.22921 3.89659 1.81237 4.91353 1.81237 6.11372C1.81237 7.31391 2.22921 8.33085 3.0629 9.16453C3.89659 9.99822 4.91353 10.4151 6.11372 10.4151Z" fill="white"/>
</svg>
