<svg viewBox="0 0 22 22" fill="none" xmlns="http://www.w3.org/2000/svg">
<path d="M15.1 11.6667L13.65 10.0556C13.8 9.18519 13.575 8.37037 12.975 7.61111C12.375 6.85185 11.6 6.55556 10.65 6.72222L9.2 5.11111C9.48333 4.96296 9.77083 4.85185 10.0625 4.77778C10.3542 4.7037 10.6667 4.66667 11 4.66667C12.25 4.66667 13.3125 5.15278 14.1875 6.125C15.0625 7.09722 15.5 8.27778 15.5 9.66667C15.5 10.037 15.4667 10.3843 15.4 10.7083C15.3333 11.0324 15.2333 11.3519 15.1 11.6667ZM18.3 15.1667L16.85 13.6111C17.4833 13.0741 18.0458 12.4861 18.5375 11.8472C19.0292 11.2083 19.45 10.4815 19.8 9.66667C18.9667 7.7963 17.7708 6.31019 16.2125 5.20833C14.6542 4.10648 12.9167 3.55556 11 3.55556C10.5167 3.55556 10.0417 3.59259 9.575 3.66667C9.10833 3.74074 8.65 3.85185 8.2 4L6.65 2.27778C7.33333 1.96296 8.03333 1.72685 8.75 1.56944C9.46667 1.41204 10.2167 1.33333 11 1.33333C13.5167 1.33333 15.7583 2.10648 17.725 3.65278C19.6917 5.19907 21.1167 7.2037 22 9.66667C21.6167 10.7593 21.1125 11.7731 20.4875 12.7083C19.8625 13.6435 19.1333 14.463 18.3 15.1667ZM18.8 22L14.6 17.3889C14.0167 17.5926 13.4292 17.7454 12.8375 17.8472C12.2458 17.9491 11.6333 18 11 18C8.48333 18 6.24167 17.2269 4.275 15.6806C2.30833 14.1343 0.883333 12.1296 0 9.66667C0.35 8.68519 0.791667 7.77315 1.325 6.93056C1.85833 6.08796 2.46667 5.33333 3.15 4.66667L0.4 1.55556L1.8 0L20.2 20.4444L18.8 22ZM4.55 6.22222C4.06667 6.7037 3.625 7.23148 3.225 7.80556C2.825 8.37963 2.48333 9 2.2 9.66667C3.03333 11.537 4.22917 13.0231 5.7875 14.125C7.34583 15.2269 9.08333 15.7778 11 15.7778C11.3333 15.7778 11.6583 15.7546 11.975 15.7083C12.2917 15.662 12.6167 15.6111 12.95 15.5556L12.05 14.5C11.8667 14.5556 11.6917 14.5972 11.525 14.625C11.3583 14.6528 11.1833 14.6667 11 14.6667C9.75 14.6667 8.6875 14.1806 7.8125 13.2083C6.9375 12.2361 6.5 11.0556 6.5 9.66667C6.5 9.46296 6.5125 9.26852 6.5375 9.08333C6.5625 8.89815 6.6 8.7037 6.65 8.5L4.55 6.22222Z" fill="#1C1B1F"/>
</svg>
