<svg viewBox="0 0 22 17" fill="none" xmlns="http://www.w3.org/2000/svg">
<path d="M14.1875 12.1125C15.0625 11.1208 15.5 9.91667 15.5 8.5C15.5 7.08333 15.0625 5.87917 14.1875 4.8875C13.3125 3.89583 12.25 3.4 11 3.4C9.75 3.4 8.6875 3.89583 7.8125 4.8875C6.9375 5.87917 6.5 7.08333 6.5 8.5C6.5 9.91667 6.9375 11.1208 7.8125 12.1125C8.6875 13.1042 9.75 13.6 11 13.6C12.25 13.6 13.3125 13.1042 14.1875 12.1125ZM9.0875 10.6675C8.5625 10.0725 8.3 9.35 8.3 8.5C8.3 7.65 8.5625 6.9275 9.0875 6.3325C9.6125 5.7375 10.25 5.44 11 5.44C11.75 5.44 12.3875 5.7375 12.9125 6.3325C13.4375 6.9275 13.7 7.65 13.7 8.5C13.7 9.35 13.4375 10.0725 12.9125 10.6675C12.3875 11.2625 11.75 11.56 11 11.56C10.25 11.56 9.6125 11.2625 9.0875 10.6675ZM4.35 14.6908C2.35 13.1514 0.9 11.0878 0 8.5C0.9 5.91222 2.35 3.84861 4.35 2.30917C6.35 0.769722 8.56667 0 11 0C13.4333 0 15.65 0.769722 17.65 2.30917C19.65 3.84861 21.1 5.91222 22 8.5C21.1 11.0878 19.65 13.1514 17.65 14.6908C15.65 16.2303 13.4333 17 11 17C8.56667 17 6.35 16.2303 4.35 14.6908ZM16.1875 13.0475C17.7625 11.9236 18.9667 10.4078 19.8 8.5C18.9667 6.59222 17.7625 5.07639 16.1875 3.9525C14.6125 2.82861 12.8833 2.26667 11 2.26667C9.11667 2.26667 7.3875 2.82861 5.8125 3.9525C4.2375 5.07639 3.03333 6.59222 2.2 8.5C3.03333 10.4078 4.2375 11.9236 5.8125 13.0475C7.3875 14.1714 9.11667 14.7333 11 14.7333C12.8833 14.7333 14.6125 14.1714 16.1875 13.0475Z" fill="#1C1B1F"/>
</svg>
