<svg width="15" height="14" viewBox="0 0 15 14" fill="none" xmlns="http://www.w3.org/2000/svg">
<path d="M7.5 14L6.4125 13.0082C5.15 11.851 4.10625 10.8529 3.28125 10.0136C2.45625 9.17439 1.8 8.42098 1.3125 7.75341C0.825 7.08583 0.484375 6.4723 0.290625 5.91281C0.096875 5.35332 0 4.78111 0 4.19619C0 3.00091 0.39375 2.00272 1.18125 1.20163C1.96875 0.400545 2.95 0 4.125 0C4.775 0 5.39375 0.139873 5.98125 0.419619C6.56875 0.699364 7.075 1.09355 7.5 1.60218C7.925 1.09355 8.43125 0.699364 9.01875 0.419619C9.60625 0.139873 10.225 0 10.875 0C12.05 0 13.0313 0.400545 13.8188 1.20163C14.6063 2.00272 15 3.00091 15 4.19619C15 4.78111 14.9031 5.35332 14.7094 5.91281C14.5156 6.4723 14.175 7.08583 13.6875 7.75341C13.2 8.42098 12.5437 9.17439 11.7188 10.0136C10.8938 10.8529 9.85 11.851 8.5875 13.0082L7.5 14Z" fill="#E6EAF2"/>
</svg>
