<svg width="12" height="15" viewBox="0 0 12 15" fill="none" xmlns="http://www.w3.org/2000/svg">
<path d="M7.05938 7.05938C7.35313 6.76563 7.5 6.4125 7.5 6C7.5 5.5875 7.35313 5.23438 7.05938 4.94063C6.76563 4.64688 6.4125 4.5 6 4.5C5.5875 4.5 5.23438 4.64688 4.94063 4.94063C4.64688 5.23438 4.5 5.5875 4.5 6C4.5 6.4125 4.64688 6.76563 4.94063 7.05938C5.23438 7.35313 5.5875 7.5 6 7.5C6.4125 7.5 6.76563 7.35313 7.05938 7.05938ZM6 15C3.9875 13.2875 2.48438 11.6969 1.49063 10.2281C0.496875 8.75938 0 7.4 0 6.15C0 4.275 0.603125 2.78125 1.80938 1.66875C3.01563 0.55625 4.4125 0 6 0C7.5875 0 8.98438 0.55625 10.1906 1.66875C11.3969 2.78125 12 4.275 12 6.15C12 7.4 11.5031 8.75938 10.5094 10.2281C9.51562 11.6969 8.0125 13.2875 6 15Z" fill="#E6EAF2"/>
</svg>
