<svg width="18" height="15" viewBox="0 0 18 15" fill="none" xmlns="http://www.w3.org/2000/svg">
<path d="M1.8 15C1.305 15 0.88125 14.8164 0.52875 14.4492C0.17625 14.082 0 13.6406 0 13.125V1.875C0 1.35938 0.17625 0.917969 0.52875 0.550781C0.88125 0.183594 1.305 0 1.8 0H16.2C16.695 0 17.1187 0.183594 17.4713 0.550781C17.8237 0.917969 18 1.35938 18 1.875V13.125C18 13.6406 17.8237 14.082 17.4713 14.4492C17.1187 14.8164 16.695 15 16.2 15H1.8ZM9 8.4375L16.2 3.75V1.875L9 6.5625L1.8 1.875V3.75L9 8.4375Z" fill="#E6EAF2"/>
</svg>
