<svg width="14" height="13" viewBox="0 0 14 13" fill="none" xmlns="http://www.w3.org/2000/svg">
<path d="M1.37186 13V3.68333L0 0.613889L1.26633 0L2.9196 3.64722H11.0804L12.7337 0L14 0.613889L12.6281 3.68333V13H1.37186ZM5.59297 7.94444H8.40704C8.60637 7.94444 8.77345 7.87523 8.90829 7.73681C9.04313 7.59838 9.11055 7.42685 9.11055 7.22222C9.11055 7.01759 9.04313 6.84607 8.90829 6.70764C8.77345 6.56921 8.60637 6.5 8.40704 6.5H5.59297C5.39364 6.5 5.22655 6.56921 5.09171 6.70764C4.95687 6.84607 4.88945 7.01759 4.88945 7.22222C4.88945 7.42685 4.95687 7.59838 5.09171 7.73681C5.22655 7.87523 5.39364 7.94444 5.59297 7.94444Z" fill="#E6EAF2"/>
</svg>
