<svg width="28" height="26" viewBox="0 0 28 26" fill="none" xmlns="http://www.w3.org/2000/svg">
<path d="M20.6667 25.8333H7.75V9.04167L16.7917 0L18.4062 1.61458C18.5569 1.76528 18.6807 1.96979 18.7776 2.22813C18.8745 2.48646 18.9229 2.73403 18.9229 2.97083V3.42292L17.5021 9.04167H24.5417C25.2306 9.04167 25.8333 9.3 26.35 9.81667C26.8667 10.3333 27.125 10.9361 27.125 11.625V14.2083C27.125 14.359 27.1089 14.5205 27.0766 14.6927C27.0443 14.8649 26.9958 15.0264 26.9312 15.1771L23.0562 24.2833C22.8625 24.7139 22.5396 25.0799 22.0875 25.3813C21.6354 25.6826 21.1618 25.8333 20.6667 25.8333ZM5.16667 9.04167V25.8333H0V9.04167H5.16667Z" fill="#abaeb4"/>
</svg>
